<svg width="33" height="32" viewBox="0 0 33 32" fill="none" xmlns="http://www.w3.org/2000/svg">
<rect x="0.5" width="32" height="32" rx="8" fill="#F9FAFB"/>
<path d="M10.5 25V23C10.5 21.9391 10.9214 20.9217 11.6716 20.1716C12.4217 19.4214 13.4391 19 14.5 19H18.5C19.5609 19 20.5783 19.4214 21.3284 20.1716C22.0786 20.9217 22.5 21.9391 22.5 23V25M12.5 11C12.5 12.0609 12.9214 13.0783 13.6716 13.8284C14.4217 14.5786 15.4391 15 16.5 15C17.5609 15 18.5783 14.5786 19.3284 13.8284C20.0786 13.0783 20.5 12.0609 20.5 11C20.5 9.93913 20.0786 8.92172 19.3284 8.17157C18.5783 7.42143 17.5609 7 16.5 7C15.4391 7 14.4217 7.42143 13.6716 8.17157C12.9214 8.92172 12.5 9.93913 12.5 11Z" stroke="#788494" stroke-linecap="round" stroke-linejoin="round"/>
</svg>
